<svg xmlns="http://www.w3.org/2000/svg" xmlns:xlink="http://www.w3.org/1999/xlink" width="2560" zoomAndPan="magnify" viewBox="0 0 1920 1079.999946" height="1440" preserveAspectRatio="xMidYMid meet" version="1.0"><defs><g/><clipPath id="4e7f1b56aa"><path d="M 528.746094 107.996094 L 1391.996094 107.996094 L 1391.996094 971.996094 L 528.746094 971.996094 Z M 528.746094 107.996094 " clip-rule="nonzero"/></clipPath></defs><g clip-path="url(#4e7f1b56aa)"><path fill="#000000" d="M 527.996094 539.996094 C 527.996094 301.863281 721.863281 107.996094 959.996094 107.996094 C 1198.128906 107.996094 1391.996094 301.863281 1391.996094 539.996094 C 1391.996094 778.128906 1198.128906 971.996094 959.996094 971.996094 C 721.863281 971.996094 527.996094 778.128906 527.996094 539.996094 Z M 1385.613281 539.996094 C 1385.613281 305.269531 1194.722656 114.378906 959.996094 114.378906 C 725.269531 114.378906 534.378906 305.269531 534.378906 539.996094 C 534.378906 774.722656 725.269531 965.613281 959.996094 965.613281 C 1194.722656 965.613281 1385.613281 774.722656 1385.613281 539.996094 Z M 1385.613281 539.996094 " fill-opacity="1" fill-rule="nonzero"/></g><path stroke-linecap="butt" transform="matrix(0.749591, 0, 0, 0.75, 627.438926, 408.149943)" fill="none" stroke-linejoin="miter" d="M -0.00190302 2.997993 L 887.487771 2.997993 " stroke="#000000" stroke-width="6" stroke-opacity="1" stroke-miterlimit="4"/><path stroke-linecap="butt" transform="matrix(0.749591, 0, 0, 0.75, 627.438926, 679.31663)" fill="none" stroke-linejoin="miter" d="M -0.00190302 2.999702 L 887.487771 2.999702 " stroke="#000000" stroke-width="6" stroke-opacity="1" stroke-miterlimit="4"/><g fill="#000000" fill-opacity="1"><g transform="translate(629.046314, 569.159904)"><g><path d="M 86.519531 -24.828125 C 85.457031 -25.253906 84.285156 -24.828125 83.855469 -23.761719 C 71.710938 2.023438 59.988281 20.992188 48.90625 32.605469 C 39.53125 42.40625 31.113281 46.457031 24.402344 44.433594 C 18.328125 42.515625 13.640625 35.375 11.292969 24.292969 C 8.628906 12.359375 8.738281 -2.984375 11.507812 -20.03125 C 15.449219 -44.324219 26.851562 -78.742188 40.171875 -94.726562 C 44.113281 -99.414062 47.523438 -101.652344 49.546875 -100.585938 C 54.554688 -98.136719 56.578125 -77.785156 45.605469 -28.449219 C 45.285156 -27.382812 46.03125 -26.320312 47.097656 -26 C 48.269531 -25.785156 49.332031 -26.53125 49.546875 -27.597656 C 56.6875 -59.457031 62.757812 -98.667969 51.359375 -104.316406 C 48.589844 -105.699219 43.898438 -105.59375 37.082031 -97.390625 C 28.554688 -87.160156 22.054688 -71.921875 18.113281 -60.839844 C 13.320312 -47.734375 9.484375 -33.03125 7.457031 -20.671875 C 1.492188 15.875 7.886719 43.582031 23.226562 48.375 C 24.71875 48.800781 26.320312 49.015625 27.917969 49.015625 C 44.753906 49.015625 66.167969 23.65625 87.480469 -22.054688 C 88.011719 -23.121094 87.585938 -24.292969 86.519531 -24.828125 Z M 86.519531 -24.828125 "/></g></g></g><g fill="#000000" fill-opacity="1"><g transform="translate(711.30188, 569.159904)"><g><path d="M 78.101562 -93.339844 C 72.882812 -98.242188 66.703125 -99.625 60.628906 -97.175781 C 56.046875 -95.363281 51.679688 -91.421875 47.84375 -85.773438 C 46.5625 -85.667969 45.285156 -85.457031 44.113281 -85.027344 C 29.410156 -80.128906 18.007812 -55.941406 12.253906 -35.054688 C 5.648438 -11.082031 3.621094 9.804688 6.605469 25.464844 C 9.269531 39.851562 15.984375 49.441406 25.464844 52.316406 C 27.382812 52.957031 29.515625 53.277344 31.644531 53.277344 C 47.734375 53.277344 68.941406 36.015625 83.109375 -5.328125 C 97.28125 -46.5625 91.316406 -80.875 78.101562 -93.339844 Z M 79.273438 -6.710938 C 64.785156 35.695312 41.769531 53.167969 26.636719 48.480469 C 11.402344 43.6875 2.238281 16.410156 16.195312 -33.882812 C 23.015625 -58.496094 34.203125 -76.824219 44.859375 -80.875 C 33.777344 -61.054688 26.53125 -25.359375 24.402344 21.097656 C 24.402344 22.269531 25.253906 23.226562 26.425781 23.226562 C 27.492188 23.226562 28.449219 22.375 28.554688 21.3125 C 30.898438 -33.246094 39.957031 -65.636719 50.078125 -81.726562 C 52.53125 -81.511719 54.980469 -80.554688 57.433594 -78.636719 C 58.285156 -77.996094 59.5625 -78.101562 60.308594 -79.0625 C 60.949219 -79.914062 60.839844 -81.191406 59.882812 -81.9375 C 57.539062 -83.75 55.195312 -84.921875 52.742188 -85.457031 C 55.832031 -89.609375 59.03125 -92.167969 62.226562 -93.445312 C 67.875 -95.683594 72.457031 -93.019531 75.226562 -90.355469 C 87.265625 -79.0625 92.699219 -45.816406 79.273438 -6.710938 Z M 79.273438 -6.710938 "/></g></g></g><g fill="#000000" fill-opacity="1"><g transform="translate(809.220114, 569.159904)"><g><path d="M 94.085938 -102.503906 C 92.0625 -103.144531 91.316406 -101.117188 90.570312 -98.988281 C 90.570312 -98.882812 90.464844 -98.882812 90.464844 -98.773438 C 66.0625 -12.148438 39.105469 30.582031 23.226562 34.523438 C 20.246094 35.269531 17.792969 34.523438 15.664062 32.285156 C 6.179688 22.054688 5.648438 -17.261719 26 -82.367188 C 26.320312 -83.429688 25.785156 -84.601562 24.613281 -84.921875 C 23.546875 -85.242188 22.484375 -84.710938 22.054688 -83.644531 C 3.730469 -24.933594 0.105469 21.628906 12.679688 35.054688 C 15.769531 38.359375 19.820312 39.53125 24.1875 38.464844 C 33.882812 36.121094 45.070312 23.441406 56.898438 1.703125 C 65.636719 -14.382812 74.265625 -35.054688 82.472656 -59.136719 C 74.800781 -25.464844 65.210938 18.328125 63.292969 41.980469 C 62.546875 52.636719 64.785156 59.777344 69.152344 60.734375 C 69.472656 60.839844 69.792969 60.839844 70.113281 60.839844 C 73.628906 60.839844 76.929688 56.6875 79.808594 48.589844 C 80.128906 47.523438 79.59375 46.351562 78.53125 45.925781 C 77.464844 45.605469 76.292969 46.136719 75.972656 47.203125 C 72.988281 55.515625 70.539062 56.898438 70.003906 56.792969 C 68.941406 56.472656 66.703125 51.996094 67.449219 42.300781 C 69.472656 15.984375 81.9375 -38.144531 89.292969 -70.429688 C 91.316406 -79.0625 93.019531 -86.519531 94.085938 -91.742188 C 94.726562 -94.511719 95.152344 -96.535156 95.363281 -97.921875 C 95.683594 -99.839844 96.003906 -101.863281 94.085938 -102.503906 Z M 94.085938 -102.503906 "/></g></g></g><g fill="#000000" fill-opacity="1"><g transform="translate(902.556754, 569.159904)"><g><path d="M 107.40625 25.890625 C 106.554688 25.144531 105.273438 25.253906 104.527344 26.210938 C 101.4375 29.941406 98.453125 31.753906 95.472656 31.644531 C 88.226562 31.433594 80.234375 20.136719 71.710938 8.3125 C 65.636719 -0.320312 58.921875 -9.804688 51.25 -17.046875 C 57.003906 -18.964844 62.652344 -21.738281 68.085938 -25.464844 C 78.210938 -32.390625 87.265625 -42.300781 93.765625 -53.277344 C 103.570312 -70.003906 105.808594 -86.628906 99.625 -96.644531 C 96.324219 -102.078125 88.972656 -108.257812 72.777344 -107.085938 C 48.269531 -105.378906 19.820312 -89.292969 9.589844 -71.175781 C 4.367188 -62.121094 3.941406 -52.957031 8.097656 -44.539062 C 8.628906 -43.582031 9.804688 -43.152344 10.867188 -43.6875 C 11.828125 -44.113281 12.253906 -45.390625 11.722656 -46.457031 C 8.097656 -53.597656 8.628906 -61.269531 13.105469 -69.152344 C 22.695312 -85.882812 50.078125 -101.4375 73.09375 -103.035156 C 84.285156 -103.78125 92.167969 -100.90625 96.109375 -94.511719 C 101.542969 -85.773438 99.308594 -70.75 90.25 -55.300781 C 78.101562 -34.84375 61.800781 -24.292969 47.523438 -20.246094 C 45.816406 -21.628906 44.113281 -22.910156 42.300781 -23.972656 C 40.488281 -25.144531 38.679688 -26.105469 36.867188 -26.957031 C 37.933594 -31.007812 38.890625 -34.949219 39.746094 -38.679688 C 44.539062 -57.859375 48.90625 -75.972656 51.359375 -86.945312 C 51.570312 -88.011719 50.933594 -89.078125 49.761719 -89.398438 C 48.695312 -89.609375 47.628906 -88.863281 47.414062 -87.800781 C 44.964844 -76.824219 40.488281 -58.816406 35.800781 -39.636719 C 34.84375 -35.800781 33.992188 -32.074219 33.03125 -28.554688 C 26.957031 -30.792969 21.949219 -30.792969 18.859375 -28.449219 C 16.941406 -26.851562 16.195312 -24.507812 16.941406 -22.164062 C 18.007812 -18.964844 21.84375 -15.449219 29.621094 -14.492188 C 12.464844 56.367188 12.785156 60.839844 16.089844 62.015625 C 16.410156 62.121094 16.730469 62.121094 16.941406 62.121094 C 18.964844 62.121094 20.566406 59.351562 23.335938 53.277344 C 23.761719 52.316406 23.335938 51.039062 22.269531 50.613281 C 21.203125 50.1875 20.03125 50.613281 19.5 51.679688 C 19.285156 52.210938 18.964844 52.851562 18.753906 53.382812 C 20.566406 41.128906 27.277344 12.464844 33.777344 -14.277344 C 38.039062 -14.171875 42.300781 -14.703125 46.671875 -15.664062 C 54.769531 -8.628906 61.90625 1.492188 68.40625 10.65625 C 77.890625 23.972656 85.988281 35.480469 95.363281 35.800781 C 95.472656 35.800781 95.578125 35.800781 95.683594 35.800781 C 99.945312 35.800781 103.890625 33.457031 107.726562 28.769531 C 108.472656 27.917969 108.257812 26.636719 107.40625 25.890625 Z M 20.882812 -23.441406 C 20.671875 -24.1875 20.777344 -24.71875 21.417969 -25.144531 C 22.269531 -25.890625 23.441406 -26.210938 24.828125 -26.210938 C 26.957031 -26.210938 29.515625 -25.464844 32.074219 -24.507812 C 31.539062 -22.484375 31.113281 -20.457031 30.582031 -18.539062 C 24.828125 -19.179688 21.523438 -21.417969 20.882812 -23.441406 Z M 34.84375 -18.328125 C 35.164062 -19.820312 35.480469 -21.3125 35.910156 -22.800781 C 37.507812 -22.054688 39 -21.203125 40.171875 -20.457031 C 40.917969 -20.03125 41.664062 -19.605469 42.300781 -19.074219 C 39.746094 -18.648438 37.1875 -18.433594 34.84375 -18.328125 Z M 34.84375 -18.328125 "/></g></g></g><g fill="#000000" fill-opacity="1"><g transform="translate(1000.688068, 569.159904)"><g><path d="M 103.996094 -24.292969 C 103.355469 -25.253906 102.078125 -25.464844 101.226562 -24.828125 C 90.355469 -17.15625 80.554688 -9.804688 71.601562 -2.875 C 65.53125 -12.894531 49.332031 -19.5 27.703125 -28.238281 C 24.933594 -29.300781 22.164062 -30.472656 19.285156 -31.644531 C 10.761719 -35.054688 7.777344 -40.382812 10.121094 -47.734375 C 13.320312 -57.964844 26.746094 -71.496094 44.964844 -83.109375 C 62.332031 -94.085938 79.382812 -100.265625 87.375 -98.453125 C 89.929688 -97.921875 92.808594 -96.429688 91.953125 -90.464844 C 91.742188 -89.398438 92.59375 -88.332031 93.660156 -88.121094 C 94.832031 -88.011719 95.898438 -88.757812 96.003906 -89.929688 C 97.28125 -98.988281 91.742188 -101.652344 88.332031 -102.503906 C 68.941406 -106.871094 14.066406 -73.949219 6.179688 -49.015625 C 3.304688 -39.636719 7.351562 -32.074219 17.6875 -27.808594 C 20.566406 -26.636719 23.441406 -25.464844 26.210938 -24.402344 C 49.441406 -15.023438 63.71875 -8.84375 68.40625 -0.425781 C 30.6875 29.089844 11.507812 50.1875 14.703125 59.242188 C 15.238281 60.734375 16.835938 62.972656 21.3125 62.972656 C 21.628906 62.972656 22.054688 62.972656 22.375 62.972656 C 36.652344 61.90625 67.769531 40.597656 73.734375 10.441406 C 74.480469 6.925781 74.265625 3.730469 73.414062 0.851562 C 82.472656 -6.074219 92.488281 -13.53125 103.570312 -21.417969 C 104.527344 -22.164062 104.742188 -23.441406 103.996094 -24.292969 Z M 69.683594 9.695312 C 63.933594 38.464844 33.777344 57.964844 22.054688 58.921875 C 20.992188 58.921875 18.964844 58.921875 18.648438 57.859375 C 17.476562 54.660156 23.441406 45.605469 33.882812 35.054688 C 42.726562 26 54.769531 15.449219 69.792969 3.621094 C 70.21875 5.539062 70.113281 7.457031 69.683594 9.695312 Z M 69.683594 9.695312 "/></g></g></g><g fill="#000000" fill-opacity="1"><g transform="translate(1100.630708, 569.159904)"><g><path d="M 114.011719 -102.824219 C 98.027344 -102.609375 73.734375 -99.09375 52.851562 -94.085938 C 53.0625 -94.9375 53.277344 -95.898438 53.488281 -96.644531 C 53.703125 -97.816406 52.957031 -98.882812 51.890625 -99.09375 C 50.71875 -99.414062 49.652344 -98.667969 49.441406 -97.601562 C 49.121094 -96.109375 48.800781 -94.617188 48.375 -92.914062 C 30.792969 -88.4375 10.65625 -81.40625 7.992188 -72.457031 C 7.140625 -69.898438 7.457031 -66.0625 13 -62.226562 C 13.425781 -61.90625 13.746094 -61.800781 14.171875 -61.800781 C 14.8125 -61.800781 15.449219 -62.121094 15.875 -62.757812 C 16.515625 -63.613281 16.300781 -64.890625 15.34375 -65.53125 C 11.082031 -68.511719 11.613281 -70.539062 11.828125 -71.285156 C 13.640625 -77.144531 28.554688 -83.324219 47.308594 -88.4375 C 45.285156 -79.914062 42.621094 -69.683594 39.851562 -59.136719 C 37.292969 -49.546875 34.734375 -39.53125 32.285156 -29.726562 C 18.433594 -26 6.710938 -22.054688 3.941406 -19.394531 C 3.195312 -18.648438 3.089844 -17.367188 3.941406 -16.515625 C 4.261719 -16.089844 4.902344 -15.875 5.433594 -15.875 C 5.859375 -15.875 6.394531 -16.089844 6.820312 -16.515625 C 8.3125 -17.902344 16.410156 -21.097656 31.113281 -25.144531 C 25.679688 -3.089844 21.203125 17.6875 20.992188 30.15625 C 20.882812 36.972656 22.589844 41.023438 26.105469 42.515625 C 27.0625 42.941406 28.023438 43.046875 29.089844 43.046875 C 37.933594 43.046875 51.890625 30.15625 67.769531 14.703125 C 68.941406 13.53125 70.113281 12.464844 71.070312 11.507812 L 72.882812 9.695312 C 73.308594 9.375 73.734375 8.84375 74.265625 8.417969 C 74.375 8.628906 74.480469 8.738281 74.585938 8.84375 C 75.546875 9.484375 76.824219 9.269531 77.464844 8.417969 C 81.621094 2.875 83.21875 0.746094 81.40625 -0.851562 C 79.808594 -2.34375 77.890625 -0.640625 75.867188 1.277344 C 74.265625 2.769531 72.242188 4.6875 70.003906 6.820312 L 68.300781 8.523438 C 67.234375 9.589844 66.0625 10.65625 64.890625 11.722656 C 54.234375 22.164062 34.417969 41.664062 27.703125 38.785156 C 25.464844 37.828125 25.039062 33.5625 25.144531 30.261719 C 25.359375 17.792969 30.046875 -3.941406 35.695312 -26.425781 C 38.144531 -27.0625 40.703125 -27.808594 43.472656 -28.449219 C 61.90625 -33.136719 79.0625 -36.441406 83.324219 -36.226562 C 84.496094 -36.121094 85.457031 -36.972656 85.457031 -38.144531 C 85.5625 -39.316406 84.710938 -40.277344 83.539062 -40.277344 C 78.421875 -40.597656 56.472656 -36.121094 36.761719 -31.007812 C 39.105469 -40.171875 41.554688 -49.441406 43.792969 -58.070312 C 46.777344 -69.578125 49.652344 -80.554688 51.785156 -89.503906 C 72.777344 -94.832031 97.496094 -98.453125 114.117188 -98.667969 C 115.183594 -98.667969 116.140625 -99.625 116.140625 -100.800781 C 116.140625 -101.863281 115.183594 -102.71875 114.011719 -102.824219 Z M 114.011719 -102.824219 "/></g></g></g><g fill="#000000" fill-opacity="1"><g transform="translate(1190.983964, 569.159904)"><g><path d="M 103.996094 -24.292969 C 103.355469 -25.253906 102.078125 -25.464844 101.226562 -24.828125 C 90.355469 -17.15625 80.554688 -9.804688 71.601562 -2.875 C 65.53125 -12.894531 49.332031 -19.5 27.703125 -28.238281 C 24.933594 -29.300781 22.164062 -30.472656 19.285156 -31.644531 C 10.761719 -35.054688 7.777344 -40.382812 10.121094 -47.734375 C 13.320312 -57.964844 26.746094 -71.496094 44.964844 -83.109375 C 62.332031 -94.085938 79.382812 -100.265625 87.375 -98.453125 C 89.929688 -97.921875 92.808594 -96.429688 91.953125 -90.464844 C 91.742188 -89.398438 92.59375 -88.332031 93.660156 -88.121094 C 94.832031 -88.011719 95.898438 -88.757812 96.003906 -89.929688 C 97.28125 -98.988281 91.742188 -101.652344 88.332031 -102.503906 C 68.941406 -106.871094 14.066406 -73.949219 6.179688 -49.015625 C 3.304688 -39.636719 7.351562 -32.074219 17.6875 -27.808594 C 20.566406 -26.636719 23.441406 -25.464844 26.210938 -24.402344 C 49.441406 -15.023438 63.71875 -8.84375 68.40625 -0.425781 C 30.6875 29.089844 11.507812 50.1875 14.703125 59.242188 C 15.238281 60.734375 16.835938 62.972656 21.3125 62.972656 C 21.628906 62.972656 22.054688 62.972656 22.375 62.972656 C 36.652344 61.90625 67.769531 40.597656 73.734375 10.441406 C 74.480469 6.925781 74.265625 3.730469 73.414062 0.851562 C 82.472656 -6.074219 92.488281 -13.53125 103.570312 -21.417969 C 104.527344 -22.164062 104.742188 -23.441406 103.996094 -24.292969 Z M 69.683594 9.695312 C 63.933594 38.464844 33.777344 57.964844 22.054688 58.921875 C 20.992188 58.921875 18.964844 58.921875 18.648438 57.859375 C 17.476562 54.660156 23.441406 45.605469 33.882812 35.054688 C 42.726562 26 54.769531 15.449219 69.792969 3.621094 C 70.21875 5.539062 70.113281 7.457031 69.683594 9.695312 Z M 69.683594 9.695312 "/></g></g></g></svg>